<?xml version="1.0" encoding="UTF-8"?>
<svg width="700pt" height="700pt" version="1.1" viewBox="0 0 700 700" xmlns="http://www.w3.org/2000/svg">
 <g>
  <path d="m367.5 290.25v-167.75c0-9.6641-7.8359-17.5-17.5-17.5s-17.5 7.8359-17.5 17.5v167.75l-57.625-57.625c-6.8359-6.832-17.914-6.832-24.75 0-6.832 6.8359-6.832 17.914 0 24.75l99.875 99.875 99.875-99.875c6.832-6.8359 6.832-17.914 0-24.75-6.8359-6.832-17.914-6.832-24.75 0z"/>
  <path d="m210 332.5c9.6641 0 17.5 7.8359 17.5 17.5v28c0 13.531 10.969 24.5 24.5 24.5h196c13.531 0 24.5-10.969 24.5-24.5v-28c0-9.6641 7.8359-17.5 17.5-17.5s17.5 7.8359 17.5 17.5v28c0 32.863-26.637 59.5-59.5 59.5h-196c-32.859 0-59.5-26.637-59.5-59.5v-28c0-9.6641 7.8359-17.5 17.5-17.5z"/>
 </g>
</svg>
