<?xml version="1.0" standalone="no"?>
<!DOCTYPE svg PUBLIC "-//W3C//DTD SVG 20010904//EN"
 "http://www.w3.org/TR/2001/REC-SVG-20010904/DTD/svg10.dtd">
<svg version="1.0" xmlns="http://www.w3.org/2000/svg"
 width="175.000000pt" height="175.000000pt" viewBox="0 0 175.000000 175.000000"
 preserveAspectRatio="xMidYMid meet">

<g transform="translate(0.000000,175.000000) scale(0.100000,-0.100000)"
fill="#000000" stroke="none">
<path d="M280 1214 c0 -228 1 -245 18 -242 15 3 17 23 20 226 l2 222 165 0
c158 0 165 1 165 20 0 19 -7 20 -185 20 l-185 0 0 -246z"/>
<path d="M682 1443 c3 -17 24 -18 246 -21 l242 -2 0 -145 c0 -138 1 -145 20
-145 19 0 20 7 20 165 l0 165 -266 0 c-247 0 -265 -1 -262 -17z"/>
<path d="M410 1240 c0 -18 7 -20 60 -20 53 0 60 2 60 20 0 18 -7 20 -60 20
-53 0 -60 -2 -60 -20z"/>
<path d="M570 1240 c0 -19 7 -20 110 -20 103 0 110 1 110 20 0 19 -7 20 -110
20 -103 0 -110 -1 -110 -20z"/>
<path d="M830 1240 c0 -19 5 -21 62 -18 50 2 63 6 66 21 3 15 -5 17 -62 17
-60 0 -66 -2 -66 -20z"/>
<path d="M990 1240 c0 -17 7 -20 45 -20 38 0 45 3 45 20 0 17 -7 20 -45 20
-38 0 -45 -3 -45 -20z"/>
<path d="M1221 1095 l-77 -75 -117 0 c-114 0 -120 -1 -186 -35 l-69 -34 -12
-87 c-7 -48 -10 -117 -7 -152 6 -55 2 -77 -20 -139 -14 -40 -23 -76 -20 -79 7
-8 135 35 142 47 4 5 14 5 25 -1 58 -31 232 2 346 65 43 23 78 35 104 35 33 0
40 3 40 20 0 35 -75 27 -149 -15 -81 -45 -183 -75 -258 -75 -72 0 -93 16 -75
55 10 23 18 25 74 26 87 1 124 17 163 69 30 40 32 47 19 61 -21 24 -18 30 41
89 51 50 56 53 80 42 16 -7 77 -12 155 -12 123 0 130 1 130 20 0 19 -7 20
-124 20 -68 0 -132 3 -141 6 -12 5 -3 20 45 69 33 35 60 71 60 80 0 22 -54 75
-75 75 -10 0 -52 -34 -94 -75z m113 19 c20 -19 20 -23 -1 -46 -16 -18 -17 -18
-40 4 -21 20 -22 23 -6 40 20 22 27 22 47 2z m-275 -178 c-40 -38 -54 -45
-103 -51 -31 -4 -63 -13 -70 -20 -7 -7 -18 -46 -25 -86 -18 -113 -20 -118 -40
-129 -18 -9 -20 -5 -27 46 -7 56 2 180 15 216 4 10 29 30 56 43 41 19 66 24
145 24 l95 1 -46 -44z m-119 -121 c-13 -14 -27 -25 -30 -25 -4 0 -5 11 -2 25
3 19 11 25 30 25 l25 0 -23 -25z m159 -66 c-10 -20 -66 -59 -84 -59 -5 0 11
20 35 45 43 44 70 52 49 14z"/>
<path d="M410 1121 c0 -18 6 -21 46 -21 38 0 45 3 42 18 -2 12 -15 18 -46 20
-37 3 -42 1 -42 -17z"/>
<path d="M530 1120 c0 -18 7 -20 65 -20 58 0 65 2 65 20 0 18 -7 20 -65 20
-58 0 -65 -2 -65 -20z"/>
<path d="M690 1120 c0 -19 7 -20 115 -20 108 0 115 1 115 20 0 19 -7 20 -115
20 -108 0 -115 -1 -115 -20z"/>
<path d="M960 1120 c0 -18 7 -20 60 -20 53 0 60 2 60 20 0 18 -7 20 -60 20
-53 0 -60 -2 -60 -20z"/>
<path d="M410 995 c0 -12 15 -15 75 -15 60 0 75 3 75 15 0 12 -15 15 -75 15
-60 0 -75 -3 -75 -15z"/>
<path d="M590 995 c0 -11 12 -15 45 -15 33 0 45 4 45 15 0 11 -12 15 -45 15
-33 0 -45 -4 -45 -15z"/>
<path d="M280 610 c0 -289 2 -335 16 -360 21 -35 64 -60 103 -60 24 0 31 4 31
20 0 15 -7 20 -29 20 -28 0 -81 33 -81 51 0 5 132 9 325 9 318 0 325 0 325 20
0 20 -7 20 -325 20 l-325 0 -2 302 c-3 279 -4 303 -20 306 -17 3 -18 -18 -18
-328z"/>
<path d="M410 869 c0 -18 5 -20 42 -17 31 2 44 8 46 21 3 14 -4 17 -42 17 -40
0 -46 -3 -46 -21z"/>
<path d="M530 870 c0 -18 7 -20 75 -20 68 0 75 2 75 20 0 18 -7 20 -75 20 -68
0 -75 -2 -75 -20z"/>
<path d="M410 750 c0 -18 6 -20 76 -20 66 0 75 2 72 18 -3 14 -16 18 -76 20
-67 3 -72 1 -72 -18z"/>
<path d="M597 763 c-20 -19 -5 -33 38 -33 38 0 45 3 45 20 0 17 -7 20 -38 20
-21 0 -42 -3 -45 -7z"/>
<path d="M1410 660 c0 -18 7 -20 70 -20 63 0 70 2 70 20 0 18 -7 20 -70 20
-63 0 -70 -2 -70 -20z"/>
<path d="M410 619 c0 -18 5 -20 42 -17 31 2 44 8 46 21 3 14 -4 17 -42 17 -40
0 -46 -3 -46 -21z"/>
<path d="M530 620 c0 -18 7 -20 75 -20 68 0 75 2 75 20 0 18 -7 20 -75 20 -68
0 -75 -2 -75 -20z"/>
<path d="M1176 533 c-3 -4 -6 -60 -6 -125 0 -87 4 -127 15 -148 l16 -30 -366
0 c-360 0 -365 0 -365 -20 0 -20 4 -21 435 -18 l435 3 32 33 c33 32 33 33 36
142 l4 110 -101 0 c-100 0 -101 0 -101 24 0 23 -22 41 -34 29z m194 -173 c0
-73 -3 -83 -25 -105 -15 -16 -36 -25 -55 -25 -19 0 -40 9 -55 25 -22 22 -25
32 -25 105 l0 80 80 0 80 0 0 -80z"/>
<path d="M410 500 c0 -18 7 -20 80 -20 73 0 80 2 80 20 0 18 -7 20 -80 20 -73
0 -80 -2 -80 -20z"/>
</g>
</svg>
