<?xml version="1.0" encoding="UTF-8"?>
<svg width="700px" height="700px" version="1.1" viewBox="0 0 700 700" xmlns="http://www.w3.org/2000/svg" xmlns:xlink="http://www.w3.org/1999/xlink">
 <defs>
  <symbol id="u" overflow="visible">
   <path d="m14.656-0.875c-0.76172 0.39844-1.5547 0.69531-2.375 0.89062-0.8125 0.19531-1.6641 0.29688-2.5469 0.29688-2.6562 0-4.7617-0.73828-6.3125-2.2188-1.5547-1.4883-2.3281-3.5039-2.3281-6.0469 0-2.5508 0.77344-4.5664 2.3281-6.0469 1.5508-1.4883 3.6562-2.2344 6.3125-2.2344 0.88281 0 1.7344 0.10156 2.5469 0.29688 0.82031 0.19922 1.6133 0.49609 2.375 0.89062v3.2969c-0.76172-0.51953-1.5117-0.89844-2.25-1.1406-0.74219-0.23828-1.5234-0.35938-2.3438-0.35938-1.4688 0-2.625 0.46875-3.4688 1.4062-0.83594 0.9375-1.25 2.2344-1.25 3.8906 0 1.6484 0.41406 2.9375 1.25 3.875 0.84375 0.9375 2 1.4062 3.4688 1.4062 0.82031 0 1.6016-0.11719 2.3438-0.35938 0.73828-0.23828 1.4883-0.61719 2.25-1.1406z"/>
  </symbol>
  <symbol id="b" overflow="visible">
   <path d="m10.719-8.7031c-0.33594-0.15625-0.66797-0.26953-1-0.34375-0.32422-0.082031-0.65625-0.125-1-0.125-0.98047 0-1.7344 0.32031-2.2656 0.95312-0.53125 0.625-0.79688 1.5273-0.79688 2.7031v5.5156h-3.8125v-11.969h3.8125v1.9688c0.48828-0.78125 1.0508-1.3477 1.6875-1.7031 0.64453-0.36328 1.4102-0.54688 2.2969-0.54688 0.13281 0 0.27344 0.007812 0.42188 0.015625 0.14453 0.011719 0.36328 0.03125 0.65625 0.0625z"/>
  </symbol>
  <symbol id="a" overflow="visible">
   <path d="m13.781-6.0156v1.0938h-8.9375c0.09375 0.89844 0.41406 1.5703 0.96875 2.0156 0.55078 0.44922 1.3281 0.67188 2.3281 0.67188 0.80078 0 1.625-0.11719 2.4688-0.35938 0.84375-0.23828 1.7109-0.59766 2.6094-1.0781v2.9531c-0.90625 0.33594-1.8125 0.58984-2.7188 0.76562s-1.8125 0.26562-2.7188 0.26562c-2.1562 0-3.8398-0.54688-5.0469-1.6406-1.1992-1.1016-1.7969-2.6484-1.7969-4.6406 0-1.9453 0.58594-3.4766 1.7656-4.5938 1.1758-1.125 2.8008-1.6875 4.875-1.6875 1.875 0 3.375 0.57031 4.5 1.7031 1.1328 1.125 1.7031 2.6367 1.7031 4.5312zm-3.9375-1.2656c0-0.72656-0.21484-1.3125-0.64062-1.75-0.41797-0.44531-0.96875-0.67188-1.6562-0.67188-0.74219 0-1.3438 0.21094-1.8125 0.625-0.46094 0.41797-0.74609 1.0156-0.85938 1.7969z"/>
  </symbol>
  <symbol id="k" overflow="visible">
   <path d="m7.2031-5.3906c-0.80469 0-1.4062 0.13672-1.8125 0.40625-0.39844 0.27344-0.59375 0.67188-0.59375 1.2031 0 0.48047 0.16016 0.85938 0.48438 1.1406 0.32031 0.27344 0.77344 0.40625 1.3594 0.40625 0.71875 0 1.3203-0.25391 1.8125-0.76562 0.48828-0.51953 0.73438-1.1719 0.73438-1.9531v-0.4375zm5.8438-1.4375v6.8281h-3.8594v-1.7656c-0.51172 0.71875-1.0898 1.2461-1.7344 1.5781-0.63672 0.33203-1.418 0.5-2.3438 0.5-1.2422 0-2.2461-0.35938-3.0156-1.0781-0.77344-0.72656-1.1562-1.6719-1.1562-2.8281 0-1.3945 0.47656-2.4219 1.4375-3.0781 0.96875-0.65625 2.4883-0.98438 4.5625-0.98438h2.25v-0.29688c0-0.60156-0.24219-1.0469-0.71875-1.3281-0.48047-0.28125-1.2266-0.42188-2.2344-0.42188-0.8125 0-1.5742 0.085937-2.2812 0.25-0.71094 0.15625-1.3672 0.40234-1.9688 0.73438v-2.9219c0.82031-0.19531 1.6445-0.34766 2.4688-0.45312 0.82031-0.10156 1.6484-0.15625 2.4844-0.15625 2.1562 0 3.7109 0.42969 4.6719 1.2812 0.95703 0.84375 1.4375 2.2266 1.4375 4.1406z"/>
  </symbol>
  <symbol id="c" overflow="visible">
   <path d="m6.0156-15.359v3.3906h3.9375v2.7344h-3.9375v5.0781c0 0.55469 0.10938 0.92969 0.32812 1.125 0.21875 0.19922 0.65625 0.29688 1.3125 0.29688h1.9688v2.7344h-3.2812c-1.5117 0-2.5859-0.3125-3.2188-0.9375-0.625-0.63281-0.9375-1.707-0.9375-3.2188v-5.0781h-1.9062v-2.7344h1.9062v-3.3906z"/>
  </symbol>
  <symbol id="j" overflow="visible">
   <path d="m9.9688-10.219v-6.4062h3.8594v16.625h-3.8594v-1.7344c-0.52344 0.71094-1.1016 1.2305-1.7344 1.5625-0.63672 0.32031-1.3711 0.48438-2.2031 0.48438-1.4688 0-2.6797-0.58203-3.625-1.75-0.94922-1.1758-1.4219-2.6875-1.4219-4.5312s0.47266-3.3477 1.4219-4.5156c0.94531-1.1758 2.1562-1.7656 3.625-1.7656 0.83203 0 1.5664 0.16797 2.2031 0.5 0.63281 0.32422 1.2109 0.83594 1.7344 1.5312zm-2.5156 7.75c0.82031 0 1.4453-0.29688 1.875-0.89062 0.42578-0.60156 0.64062-1.4727 0.64062-2.6094 0-1.1445-0.21484-2.0156-0.64062-2.6094-0.42969-0.59375-1.0547-0.89062-1.875-0.89062-0.8125 0-1.4336 0.29688-1.8594 0.89062-0.42969 0.59375-0.64062 1.4648-0.64062 2.6094 0 1.1367 0.21094 2.0078 0.64062 2.6094 0.42578 0.59375 1.0469 0.89062 1.8594 0.89062z"/>
  </symbol>
  <symbol id="i" overflow="visible">
   <path d="m8.2031-2.4688c0.82031 0 1.4453-0.29688 1.875-0.89062 0.42578-0.60156 0.64062-1.4727 0.64062-2.6094 0-1.1445-0.21484-2.0156-0.64062-2.6094-0.42969-0.59375-1.0547-0.89062-1.875-0.89062-0.82422 0-1.4531 0.30469-1.8906 0.90625-0.4375 0.59375-0.65625 1.4609-0.65625 2.5938 0 1.1367 0.21875 2.0078 0.65625 2.6094 0.4375 0.59375 1.0664 0.89062 1.8906 0.89062zm-2.5469-7.75c0.53125-0.69531 1.1133-1.207 1.75-1.5312 0.64453-0.33203 1.3828-0.5 2.2188-0.5 1.4688 0 2.6758 0.58984 3.625 1.7656 0.94531 1.168 1.4219 2.6719 1.4219 4.5156s-0.47656 3.3555-1.4219 4.5312c-0.94922 1.168-2.1562 1.75-3.625 1.75-0.83594 0-1.5742-0.16797-2.2188-0.5-0.63672-0.33203-1.2188-0.84766-1.75-1.5469v1.7344h-3.8125v-16.625h3.8125z"/>
  </symbol>
  <symbol id="h" overflow="visible">
   <path d="m0.26562-11.969h3.8281l3.2188 8.125 2.7344-8.125h3.8125l-5.0312 13.094c-0.5 1.332-1.0898 2.2656-1.7656 2.7969-0.66797 0.53125-1.5547 0.79688-2.6562 0.79688h-2.2188v-2.5h1.2031c0.64453 0 1.1133-0.10547 1.4062-0.3125 0.30078-0.21094 0.53125-0.57812 0.6875-1.1094l0.10938-0.34375z"/>
  </symbol>
  <symbol id="g" overflow="visible">
   <path d="m0.10938-15.953h4.125l4.2344 11.781 4.2188-11.781h4.1406l-5.9062 15.953h-4.9062z"/>
  </symbol>
  <symbol id="t" overflow="visible">
   <path d="m1.8438-11.969h3.8125v11.969h-3.8125zm0-4.6562h3.8125v3.125h-3.8125z"/>
  </symbol>
  <symbol id="f" overflow="visible">
   <path d="m11.5-11.594v3.125c-0.52344-0.35156-1.043-0.61328-1.5625-0.78125-0.52344-0.17578-1.0625-0.26562-1.625-0.26562-1.0742 0-1.9062 0.3125-2.5 0.9375s-0.89062 1.4961-0.89062 2.6094c0 1.1172 0.29688 1.9844 0.89062 2.6094s1.4258 0.9375 2.5 0.9375c0.59375 0 1.1562-0.085937 1.6875-0.26562 0.53906-0.17578 1.0391-0.44141 1.5-0.79688v3.125c-0.59375 0.23047-1.1992 0.39453-1.8125 0.5-0.61719 0.11328-1.2344 0.17188-1.8594 0.17188-2.1562 0-3.8438-0.55078-5.0625-1.6562-1.2188-1.1133-1.8281-2.6562-1.8281-4.625s0.60938-3.5039 1.8281-4.6094c1.2188-1.1133 2.9062-1.6719 5.0625-1.6719 0.625 0 1.2383 0.058594 1.8438 0.17188 0.61328 0.10547 1.2227 0.26562 1.8281 0.48438z"/>
  </symbol>
  <symbol id="d" overflow="visible">
   <path d="m7.5312-9.5156c-0.84375 0-1.4922 0.30859-1.9375 0.92188-0.44922 0.60547-0.67188 1.4805-0.67188 2.625 0 1.1484 0.22266 2.0273 0.67188 2.6406 0.44531 0.60547 1.0938 0.90625 1.9375 0.90625 0.83203 0 1.4688-0.30078 1.9062-0.90625 0.44531-0.61328 0.67188-1.4922 0.67188-2.6406 0-1.1445-0.22656-2.0195-0.67188-2.625-0.4375-0.61328-1.0742-0.92188-1.9062-0.92188zm0-2.7344c2.0508 0 3.6562 0.55859 4.8125 1.6719 1.1641 1.1055 1.75 2.6406 1.75 4.6094s-0.58594 3.5117-1.75 4.625c-1.1562 1.1055-2.7617 1.6562-4.8125 1.6562-2.0625 0-3.6797-0.55078-4.8438-1.6562-1.168-1.1133-1.75-2.6562-1.75-4.625s0.58203-3.5039 1.75-4.6094c1.1641-1.1133 2.7812-1.6719 4.8438-1.6719z"/>
  </symbol>
  <symbol id="e" overflow="visible">
   <path d="m1.7031-4.6562v-7.3125h3.8438v1.2031c0 0.64844-0.007813 1.4609-0.015625 2.4375v1.9688c0 0.96094 0.023438 1.6523 0.078125 2.0781 0.050781 0.41797 0.13281 0.72656 0.25 0.92188 0.15625 0.25 0.35938 0.44531 0.60938 0.57812 0.25781 0.13672 0.55078 0.20312 0.875 0.20312 0.80078 0 1.4258-0.30469 1.875-0.92188 0.45703-0.61328 0.6875-1.4688 0.6875-2.5625v-5.9062h3.8281v11.969h-3.8281v-1.7344c-0.57422 0.69922-1.1836 1.2148-1.8281 1.5469-0.64844 0.33203-1.3555 0.5-2.125 0.5-1.3867 0-2.4453-0.42188-3.1719-1.2656-0.71875-0.85156-1.0781-2.0859-1.0781-3.7031z"/>
  </symbol>
  <symbol id="s" overflow="visible">
   <path d="m1.8438-16.625h3.8125v16.625h-3.8125z"/>
  </symbol>
  <symbol id="r" overflow="visible">
   <path d="m9.7031-16.625v2.5156h-2.1094c-0.54297 0-0.92188 0.10156-1.1406 0.29688-0.21094 0.19922-0.3125 0.53906-0.3125 1.0156v0.82812h3.2656v2.7344h-3.2656v9.2344h-3.8281v-9.2344h-1.8906v-2.7344h1.8906v-0.82812c0-1.3008 0.36328-2.2656 1.0938-2.8906 0.72656-0.625 1.8516-0.9375 3.375-0.9375z"/>
  </symbol>
  <symbol id="q" overflow="visible">
   <path d="m12.922-9.9688c0.48828-0.75 1.0625-1.3164 1.7188-1.7031 0.66406-0.38281 1.3984-0.57812 2.2031-0.57812 1.375 0 2.4219 0.42969 3.1406 1.2812 0.71875 0.84375 1.0781 2.0742 1.0781 3.6875v7.2812h-3.8438v-6.2344c0.007812-0.09375 0.015625-0.1875 0.015625-0.28125v-0.4375c0-0.84375-0.125-1.457-0.375-1.8438-0.25-0.38281-0.65234-0.57812-1.2031-0.57812-0.73047 0-1.293 0.30469-1.6875 0.90625-0.38672 0.59375-0.58984 1.4609-0.60938 2.5938v5.875h-3.8438v-6.2344c0-1.3203-0.11719-2.1758-0.34375-2.5625-0.23047-0.38281-0.63672-0.57812-1.2188-0.57812-0.73047 0-1.2969 0.30469-1.7031 0.90625-0.39844 0.60547-0.59375 1.4648-0.59375 2.5781v5.8906h-3.8438v-11.969h3.8438v1.75c0.46875-0.66406 1.0039-1.1719 1.6094-1.5156 0.61328-0.34375 1.2891-0.51562 2.0312-0.51562 0.82031 0 1.5508 0.19922 2.1875 0.59375 0.63281 0.39844 1.1133 0.96094 1.4375 1.6875z"/>
  </symbol>
  <symbol id="p" overflow="visible">
   <path d="m13.859-7.2812v7.2812h-3.8438v-5.5469c0-1.0508-0.027344-1.7695-0.078125-2.1562-0.042969-0.39453-0.12109-0.6875-0.23438-0.875-0.14844-0.25-0.35156-0.44141-0.60938-0.57812-0.25-0.14453-0.54297-0.21875-0.875-0.21875-0.79297 0-1.418 0.3125-1.875 0.9375-0.46094 0.61719-0.6875 1.4648-0.6875 2.5469v5.8906h-3.8125v-16.625h3.8125v6.4062c0.58203-0.69531 1.1953-1.207 1.8438-1.5312 0.64453-0.33203 1.3594-0.5 2.1406-0.5 1.3828 0 2.4297 0.42969 3.1406 1.2812 0.71875 0.84375 1.0781 2.0742 1.0781 3.6875z"/>
  </symbol>
  <symbol id="o" overflow="visible">
   <path d="m2.0156-15.953h4.5781l5.8125 10.938v-10.938h3.8906v15.953h-4.5938l-5.7969-10.938v10.938h-3.8906z"/>
  </symbol>
  <symbol id="n" overflow="visible">
   <path d="m13.859-7.2812v7.2812h-3.8438v-5.5781c0-1.0312-0.027344-1.7383-0.078125-2.125-0.042969-0.39453-0.12109-0.6875-0.23438-0.875-0.14844-0.25-0.35156-0.44141-0.60938-0.57812-0.25-0.14453-0.54297-0.21875-0.875-0.21875-0.79297 0-1.418 0.3125-1.875 0.9375-0.46094 0.61719-0.6875 1.4648-0.6875 2.5469v5.8906h-3.8125v-11.969h3.8125v1.75c0.58203-0.69531 1.1953-1.207 1.8438-1.5312 0.64453-0.33203 1.3594-0.5 2.1406-0.5 1.3828 0 2.4297 0.42969 3.1406 1.2812 0.71875 0.84375 1.0781 2.0742 1.0781 3.6875z"/>
  </symbol>
  <symbol id="m" overflow="visible">
   <path d="m2.0156-15.953h6.8125c2.0312 0 3.5859 0.45312 4.6719 1.3594 1.0938 0.89844 1.6406 2.1797 1.6406 3.8438 0 1.6797-0.54688 2.9688-1.6406 3.875-1.0859 0.89844-2.6406 1.3438-4.6719 1.3438h-2.7031v5.5312h-4.1094zm4.1094 2.9844v4.4531h2.2656c0.80078 0 1.4141-0.19141 1.8438-0.57812 0.4375-0.38281 0.65625-0.9375 0.65625-1.6562 0-0.70703-0.21875-1.2539-0.65625-1.6406-0.42969-0.38281-1.043-0.57812-1.8438-0.57812z"/>
  </symbol>
  <symbol id="l" overflow="visible">
   <path d="m1.8438-11.969h3.8125v11.75c0 1.6016-0.38672 2.8281-1.1562 3.6719-0.76172 0.84375-1.8711 1.2656-3.3281 1.2656h-1.8906v-2.5h0.65625c0.72656 0 1.2266-0.16797 1.5-0.5 0.26953-0.32422 0.40625-0.96875 0.40625-1.9375zm0-4.6562h3.8125v3.125h-3.8125z"/>
  </symbol>
 </defs>
 <g>
  <path d="m348.34 74.242h-0.96094c-25.387 0.16797-49.746 10.051-68.078 27.617s-29.242 41.484-30.492 66.84c-1.1523 26.301 8.3047 51.965 26.25 71.227 13.035 13.797 21.418 31.332 23.977 50.137-7.5117 3.5938-14.199 8.7031-19.645 15.008-12.074 1.9258-25.332 14.48-33.512 32.023-5.1914 11.223-7.9492 23.422-8.0938 35.789 0 1.1797 0 2.4062 0.085938 3.5859 0.4375 19.164 11.332 39.945 19.293 55.125 1.6641 3.1484 3.1953 6.0391 4.4609 8.6172h0.003906c7.1367 14.023 12.012 29.082 14.438 44.625-2.1211 0.32812-4.0977 1.2734-5.6875 2.7148-2.3984 2.1328-3.7031 5.2383-3.543 8.4414l-0.74219 27.039h-0.003906c-0.042969 4.7656 3.1992 8.9375 7.832 10.062 9.2539 1.2266 18.582 1.7539 27.914 1.5742 19.25 0 41.168-1.4453 49.789-3.8516l-0.003906 0.003906c5.2227-1.3555 8.6797-6.3164 8.1406-11.684l-2.4062-26.207c-0.27344-3.1016-1.8672-5.9375-4.375-7.7852-1.7109-1.2617-3.7461-2.0039-5.8633-2.1445 0.72656-13.211 2.8516-26.309 6.3438-39.07 0.39453-1.5742 0.74219-3.0625 1.0508-4.418 4.5156-19.668 10.32-39.016 17.367-57.926 3.7969-9.5469 8.5156-18.707 14.086-27.344 5.6445-8.0078 3.3242-14.656-0.74219-18.199-0.75-0.62891-1.5547-1.1836-2.4062-1.6602 7.8789-9.0898 12.176-20.742 12.074-32.77v-0.875c-0.0625-22.312 8.4961-43.785 23.887-59.938 17.754-18.656 27.504-43.52 27.164-69.27s-10.742-50.344-28.98-68.527c-18.238-18.18-42.867-28.504-68.621-28.762zm-0.57031 417.9 0.003906 0.003906c0.48438 0.39062 0.80078 0.95703 0.875 1.5742l2.4062 26.25c0.082031 1.1094-0.63281 2.1172-1.707 2.4062-11.727 3.2812-57.094 5.0312-73.852 2.1016-0.39453-0.41797-0.64063-0.95703-0.69922-1.5312l0.74219-27.125h0.003906c-0.039062-0.69531 0.23438-1.3672 0.74219-1.8398 0.42578-0.36328 0.96875-0.5625 1.5312-0.56641h0.35156l2.1875 0.30469c0.61328 0.042969 1.2695 0.13281 1.9258 0.17578l1.5742 0.17578c17.855 1.3125 35.797 0.97656 53.594-1.0078l0.875-0.13281c1.8828-0.26172 3.6328-0.52344 4.9883-0.78906 0.78906-0.13281 1.5312-0.26172 2.3203-0.4375l-0.003906 0.003906c0.74609-0.15234 1.5195 0.007813 2.1445 0.4375zm31.062-142.98 0.003906 0.003907c-6.0391 9.332-11.141 19.238-15.227 29.574-7.1602 19.191-13.051 38.836-17.629 58.801-0.30469 1.3125-0.65625 2.7578-1.0508 4.332-3.7695 13.766-5.9727 27.914-6.5625 42.176-0.41797 0.09375-0.84375 0.16797-1.2695 0.21875l-0.83203 0.13281v-0.003906c-17.055 1.9102-34.246 2.2305-51.363 0.96484-2.3789-17.082-7.5977-33.641-15.441-49-1.3125-2.668-2.8438-5.6445-4.5508-8.8359-7.5703-14.395-17.895-34.125-18.332-51.32-0.042969-1.1367-0.042969-2.2305-0.042969-3.2812 0.13281-11.098 2.6094-22.039 7.2617-32.113 3.1875-7 7.6016-13.371 13.039-18.812-10.336 16.008-14.457 35.238-11.594 54.074 0.30078 2.1367 2.1289 3.7227 4.2852 3.7188 0.22266 0.007812 0.44141-0.007813 0.65625-0.042969 1.1445-0.16406 2.1758-0.78125 2.8672-1.707 0.6875-0.92969 0.98047-2.0938 0.80859-3.2383-4.1562-28.176 9.0547-48.344 21.043-62.824 3.4375-4.0625 7.4102-7.6406 11.812-10.629 2.5742-1.8789 5.4453-3.3125 8.4883-4.2461 2.25-0.57422 4.6328 0.09375 6.2578 1.75 0.91016 0.91797 1.2188 2.2812 0.78516 3.5-0.23438 0.67969-0.625 1.293-1.1367 1.793-11.945 13.605-24.281 37.449-23.582 54.949v0.003906c0.019531 8.9648 4.668 17.289 12.297 22.004 7.7383 4.7656 17.27 5.6094 25.723 2.2773 7.5234-3.457 16.844-14.176 25.812-24.543 2.7109-3.0625 5.293-6.082 7.6992-8.707 0.48047-0.52344 0.96094-1.0508 1.4453-1.5312 1.2695-1.3555 2.4922-2.625 3.6328-3.6758 3.0586-2.9492 7.2852-4.3633 11.504-3.8516 1.4062 0.15625 2.7383 0.69922 3.8516 1.5742 1.6172 1.4453 1.3984 3.6328-0.65625 6.5195zm-72.625-22.664 0.003906 0.007812c4.0547 7.2656 9.9766 13.316 17.152 17.531 7.1758 4.2148 15.344 6.4375 23.664 6.4414-0.74219 0.875-1.4883 1.75-2.2734 2.625-7.5703 8.75-17.062 19.645-22.836 22.355-5.8203 2.0703-12.262 1.4102-17.547-1.793-5.1328-3.207-8.2188-8.8633-8.1367-14.918 0.65625-11.398 4.082-22.465 9.9766-32.242zm66.676 5.7734 0.003906 0.007812c-5.5117 0.27344-10.742 2.5078-14.746 6.3008-0.69922 0.65625-1.4883 1.3984-2.2734 2.1875-2.8125 0.65625-5.6914 0.97656-8.5742 0.96094-7.6602 0.019531-15.148-2.2656-21.488-6.5547-6.3438-4.293-11.25-10.391-14.082-17.508 1.8047-2.6992 3.793-5.2734 5.9492-7.6992 0.042969-0.042969 0.085937-0.13281 0.17578-0.17578 9.6562 2.1172 19.512 3.2031 29.398 3.2383 0.023437 0.023438 0.054687 0.039062 0.089843 0.042969 0.042969 0 0.042969-0.042969 0.085938-0.042969 12.969-0.011719 25.871-1.8555 38.324-5.4688-1.168 9.5195-5.7344 18.297-12.859 24.719zm39.551-97.52v0.007813c-16.309 17.152-25.637 39.773-26.16 63.438-11.211 3.4922-22.832 5.4766-34.562 5.9062v-39.551c0-2.4141-1.9609-4.375-4.375-4.375-2.418 0-4.375 1.9609-4.375 4.375v39.551c-7.3281-0.23828-14.621-1.1328-21.789-2.668 0.027343-3.0938-1.0938-6.0859-3.1484-8.3984-2.6914-3-6.5156-4.7305-10.543-4.7695-2.8398-20.359-11.938-39.332-26.031-54.293-16.344-17.566-24.949-40.957-23.891-64.926 1.1289-23.109 11.066-44.91 27.773-60.918 16.707-16.004 38.91-25.004 62.047-25.141h0.875c23.465 0.23437 45.91 9.6406 62.531 26.207 16.621 16.566 26.098 38.98 26.406 62.445 0.30859 23.465-8.5781 46.121-24.758 63.117z"/>
  <path d="m314.88 56.391h0.30078c5.5039-0.054687 10.562-3.0312 13.285-7.8164 2.7227-4.7852 2.6914-10.656-0.074219-15.414-2.7695-4.7578-7.8594-7.6836-13.363-7.6836s-10.59 2.9258-13.359 7.6836c-2.7656 4.7578-2.7969 10.629-0.074219 15.414 2.7188 4.7852 7.7812 7.7617 13.285 7.8164zm-0.13672-22.312h0.14062c3.6953 0.039063 6.6641 3.0547 6.6445 6.75s-3.0195 6.6797-6.7148 6.6797c-3.6953 0-6.6953-2.9844-6.7148-6.6797-0.019531-3.6953 2.9492-6.7109 6.6445-6.75z"/>
  <path d="m430.91 67.543h0.31641c5.4688-0.058594 10.496-3.0195 13.199-7.7734 2.7031-4.7578 2.6758-10.594-0.078125-15.32-2.75-4.7266-7.8086-7.6367-13.277-7.6367-5.4727 0-10.531 2.9102-13.281 7.6367-2.7539 4.7266-2.7812 10.562-0.078124 15.32 2.7031 4.7539 7.7305 7.7148 13.199 7.7734zm-0.12109-22.312h0.13281c3.7422-0.039063 6.8086 2.9648 6.8477 6.7109 0.035157 3.7461-2.9688 6.8125-6.7148 6.8516-1.7969 0.0625-3.5391-0.62109-4.8125-1.8867-1.3008-1.2422-2.0508-2.957-2.0781-4.7578-0.074218-3.7344 2.8906-6.8242 6.625-6.9102z"/>
  <path d="m459.81 224.39c-4.3711-2.0469-9.4453-1.9414-13.727 0.28516-4.2812 2.2227-7.2891 6.3125-8.1328 11.062-0.83984 4.75 0.57422 9.625 3.8281 13.188 3.2578 3.5586 7.9844 5.4062 12.793 4.9883 4.8047-0.41406 9.1484-3.0391 11.746-7.1055 2.5977-4.0664 3.1562-9.1094 1.5117-13.648-1.3984-3.875-4.2852-7.0352-8.0195-8.7695zm-0.4375 16.934c-0.74219 1.6602-2.1172 2.9492-3.8203 3.582-1.7031 0.63281-3.5898 0.55859-5.2344-0.21094-1.6484-0.76953-2.9141-2.168-3.5195-3.8789-0.60547-1.7148-0.5-3.5977 0.29688-5.2305 1.625-3.3242 5.6094-4.7344 8.9609-3.168 3.3516 1.5664 4.8281 5.5312 3.3164 8.9062z"/>
  <path d="m235.97 223.89c-3.7188-3.5742-8.9688-5.0664-14.012-3.9844-5.043 1.0781-9.2188 4.5938-11.148 9.3789-1.9258 4.7852-1.3516 10.215 1.5352 14.488 2.8867 4.2773 7.707 6.8398 12.863 6.8398h0.30859c4.1172-0.082031 8.0312-1.793 10.887-4.7617s4.4141-6.9492 4.332-11.066c-0.082031-4.1211-1.793-8.0352-4.7656-10.891zm-10.625 17.969c-3.7461 0.074219-6.8398-2.9023-6.9141-6.6484-0.074219-3.7461 2.9023-6.8398 6.6484-6.9141h0.13672-0.003906c3.7461-0.035156 6.8125 2.9688 6.8477 6.7148 0.035156 3.7461-2.9688 6.8125-6.7148 6.8477z"/>
  <path d="m507.09 139.05c-2.3867-6.5781-7.6953-11.668-14.363-13.777-6.6719-2.1133-13.941-1-19.676 3.0039-5.7344 4.0078-9.2812 10.453-9.5938 17.441-0.3125 6.9883 2.6445 13.723 7.9961 18.227 5.3555 4.5 12.496 6.2578 19.328 4.75 6.832-1.5039 12.574-6.1016 15.535-12.438 2.5469-5.4023 2.8242-11.598 0.77344-17.207zm-8.6992 13.496c-2.7773 5.9453-9.3672 9.0977-15.738 7.5312-6.375-1.5664-10.75-7.4141-10.457-13.969 0.29688-6.5547 5.1797-11.988 11.668-12.977 6.4883-0.98828 12.766 2.7461 15 8.9141 1.25 3.4258 1.0781 7.207-0.47266 10.504z"/>
  <path d="m214.5 139.26c8.0117-0.078124 15.379-4.4102 19.34-11.375 3.957-6.9648 3.918-15.508-0.10938-22.434-4.0312-6.9258-11.438-11.184-19.449-11.184-8.0078 0-15.414 4.2578-19.445 11.184-4.0273 6.9258-4.0664 15.469-0.10938 22.434 3.9609 6.9648 11.328 11.297 19.336 11.375zm-14.191-22.23c-0.13672-7.5859 5.8945-13.852 13.48-14h0.27734-0.003906c7.5977-0.074219 13.812 6.0234 13.887 13.617s-6.0234 13.809-13.617 13.883c-3.6602 0.13281-7.207-1.2539-9.8047-3.8359-2.6445-2.5273-4.1641-6.0078-4.2188-9.6641z"/>
  <path d="m352.31 241.32c0 6.6602-9.9922 6.6602-9.9922 0 0-6.6602 9.9922-6.6602 9.9922 0"/>
  <path d="m347.32 151.09c-7.0586 0.015625-13.828 2.8242-18.824 7.8203-4.9922 4.9922-7.8008 11.762-7.8125 18.824 0 2.418 1.957 4.375 4.375 4.375 2.4141 0 4.375-1.957 4.375-4.375 0.003906-4.7422 1.8906-9.293 5.2422-12.645 3.3555-3.3555 7.9023-5.2422 12.645-5.25 5.2188 0.003906 10.172 2.2773 13.57 6.2344 3.4023 3.9531 4.9062 9.1953 4.125 14.352-0.78516 5.1562-3.7773 9.7148-8.1953 12.48-8.4375 5.0195-13.684 14.039-13.875 23.855v8.6719-0.003906c0 2.418 1.9609 4.375 4.375 4.375 2.418 0 4.375-1.957 4.375-4.375v-8.668c0.20312-6.8047 3.8984-13.02 9.7773-16.449 6.5156-4.1562 10.91-10.938 12.047-18.582 1.1367-7.6484-1.0938-15.414-6.1172-21.289-5.0273-5.875-12.348-9.2852-20.082-9.3516z"/>
  <!-- <use x="70" y="625.625" xlink:href="#u"/>
  <use x="86.054688" y="625.625" xlink:href="#b"/>
  <use x="96.839844" y="625.625" xlink:href="#a"/>
  <use x="111.679687" y="625.625" xlink:href="#k"/>
  <use x="126.4375" y="625.625" xlink:href="#c"/>
  <use x="136.894531" y="625.625" xlink:href="#a"/>
  <use x="151.730469" y="625.625" xlink:href="#j"/>
  <use x="175.007812" y="625.625" xlink:href="#i"/>
  <use x="190.664062" y="625.625" xlink:href="#h"/>
  <use x="212.539062" y="625.625" xlink:href="#g"/>
  <use x="229.46875" y="625.625" xlink:href="#t"/>
  <use x="236.96875" y="625.625" xlink:href="#f"/>
  <use x="249.933594" y="625.625" xlink:href="#c"/>
  <use x="260.390625" y="625.625" xlink:href="#d"/>
  <use x="275.421875" y="625.625" xlink:href="#b"/>
  <use x="286.207031" y="625.625" xlink:href="#e"/>
  <use x="301.78125" y="625.625" xlink:href="#s"/>
  <use x="309.277344" y="625.625" xlink:href="#a"/>
  <use x="324.117188" y="625.625" xlink:href="#b"/>
  <use x="70" y="647.5" xlink:href="#r"/>
  <use x="79.515625" y="647.5" xlink:href="#b"/>
  <use x="90.304688" y="647.5" xlink:href="#d"/>
  <use x="105.332031" y="647.5" xlink:href="#q"/>
  <use x="135.742188" y="647.5" xlink:href="#c"/>
  <use x="146.199219" y="647.5" xlink:href="#p"/>
  <use x="161.773438" y="647.5" xlink:href="#a"/>
  <use x="184.222656" y="647.5" xlink:href="#o"/>
  <use x="202.53125" y="647.5" xlink:href="#d"/>
  <use x="217.558594" y="647.5" xlink:href="#e"/>
  <use x="233.132812" y="647.5" xlink:href="#n"/>
  <use x="256.320312" y="647.5" xlink:href="#m"/>
  <use x="272.355469" y="647.5" xlink:href="#b"/>
  <use x="283.140625" y="647.5" xlink:href="#d"/>
  <use x="298.171875" y="647.5" xlink:href="#l"/>
  <use x="305.667969" y="647.5" xlink:href="#a"/>
  <use x="320.503906" y="647.5" xlink:href="#f"/>
  <use x="333.472656" y="647.5" xlink:href="#c"/> -->
 </g>
</svg>
