<?xml version="1.0" encoding="UTF-8"?>
<svg width="100px" height="100px" version="1.1" viewBox="0 0 700 700" xmlns="http://www.w3.org/2000/svg" xmlns:xlink="http://www.w3.org/1999/xlink">
 <defs>
  <symbol id="t" overflow="visible">
   <path d="m3.9062-0.23438c-0.19922 0.10547-0.40625 0.18359-0.625 0.23438s-0.44922 0.078125-0.6875 0.078125c-0.71094 0-1.2734-0.19531-1.6875-0.59375-0.40625-0.39453-0.60938-0.92969-0.60938-1.6094 0-0.67578 0.20312-1.2109 0.60938-1.6094 0.41406-0.39453 0.97656-0.59375 1.6875-0.59375 0.23828 0 0.46875 0.027344 0.6875 0.078125 0.21875 0.054688 0.42578 0.13281 0.625 0.23438v0.89062c-0.21094-0.14453-0.41406-0.25-0.60938-0.3125-0.1875-0.0625-0.39062-0.09375-0.60938-0.09375-0.39844 0-0.71094 0.125-0.9375 0.375-0.21875 0.25-0.32812 0.59375-0.32812 1.0312s0.10938 0.78125 0.32812 1.0312c0.22656 0.25 0.53906 0.375 0.9375 0.375 0.21875 0 0.42188-0.03125 0.60938-0.09375 0.19531-0.0625 0.39844-0.16016 0.60938-0.29688z"/>
  </symbol>
  <symbol id="c" overflow="visible">
   <path d="m2.8594-2.3125c-0.09375-0.039062-0.1875-0.070312-0.28125-0.09375-0.085937-0.019531-0.16797-0.03125-0.25-0.03125-0.26172 0-0.46484 0.085938-0.60938 0.25-0.13672 0.16797-0.20312 0.40625-0.20312 0.71875v1.4688h-1.0312v-3.1875h1.0312v0.53125c0.125-0.21875 0.26953-0.375 0.4375-0.46875 0.17578-0.09375 0.37891-0.14062 0.60938-0.14062 0.039062 0 0.078125 0.007813 0.10938 0.015625 0.039063 0 0.10156 0.007812 0.1875 0.015625z"/>
  </symbol>
  <symbol id="a" overflow="visible">
   <path d="m3.6719-1.6094v0.29688h-2.375c0.019531 0.24219 0.10156 0.42188 0.25 0.54688 0.14453 0.11719 0.35156 0.17188 0.625 0.17188 0.20703 0 0.42578-0.03125 0.65625-0.09375 0.22656-0.0625 0.45703-0.16016 0.6875-0.29688v0.79688c-0.24219 0.085938-0.48047 0.14844-0.71875 0.1875-0.24219 0.050781-0.48047 0.078125-0.71875 0.078125-0.58594 0-1.0391-0.14453-1.3594-0.4375-0.3125-0.28906-0.46875-0.70312-0.46875-1.2344 0-0.51953 0.15625-0.92578 0.46875-1.2188 0.3125-0.30078 0.74219-0.45312 1.2969-0.45312 0.5 0 0.89844 0.15234 1.2031 0.45312 0.30078 0.30469 0.45312 0.70312 0.45312 1.2031zm-1.0469-0.32812c0-0.19531-0.058594-0.35156-0.17188-0.46875-0.11719-0.125-0.26172-0.1875-0.4375-0.1875-0.19922 0-0.35938 0.058594-0.48438 0.17188-0.125 0.11719-0.20312 0.27734-0.23438 0.48438z"/>
  </symbol>
  <symbol id="e" overflow="visible">
   <path d="m1.9219-1.4375c-0.21875 0-0.38281 0.039062-0.48438 0.10938-0.10547 0.074219-0.15625 0.18359-0.15625 0.32812 0 0.125 0.039062 0.22656 0.125 0.29688 0.082031 0.074219 0.20312 0.10938 0.35938 0.10938 0.1875 0 0.34766-0.066406 0.48438-0.20312 0.13281-0.13281 0.20312-0.30469 0.20312-0.51562v-0.125zm1.5469-0.375v1.8125h-1.0156v-0.46875c-0.13672 0.1875-0.29297 0.32812-0.46875 0.42188-0.16797 0.082031-0.375 0.125-0.625 0.125-0.32422 0-0.58984-0.09375-0.79688-0.28125-0.21094-0.19531-0.3125-0.44531-0.3125-0.75 0-0.375 0.125-0.64844 0.375-0.82812 0.25781-0.17578 0.66406-0.26562 1.2188-0.26562h0.60938v-0.078125c0-0.15625-0.070313-0.26953-0.20312-0.34375-0.125-0.082031-0.32422-0.125-0.59375-0.125-0.21875 0-0.42188 0.027344-0.60938 0.078125-0.1875 0.042969-0.35938 0.10547-0.51562 0.1875v-0.78125c0.21875-0.050781 0.4375-0.085937 0.65625-0.10938 0.21875-0.03125 0.4375-0.046875 0.65625-0.046875 0.57031 0 0.98438 0.11719 1.2344 0.34375 0.25781 0.23047 0.39062 0.60156 0.39062 1.1094z"/>
  </symbol>
  <symbol id="b" overflow="visible">
   <path d="m1.6094-4.0938v0.90625h1.0469v0.73438h-1.0469v1.3438c0 0.14844 0.023437 0.24609 0.078125 0.29688 0.0625 0.054688 0.17969 0.078125 0.35938 0.078125h0.51562v0.73438h-0.875c-0.39844 0-0.68359-0.082031-0.85938-0.25-0.16797-0.16406-0.25-0.45312-0.25-0.85938v-1.3438h-0.5v-0.73438h0.5v-0.90625z"/>
  </symbol>
  <symbol id="k" overflow="visible">
   <path d="m2.6562-2.7188v-1.7031h1.0312v4.4219h-1.0312v-0.46875c-0.13672 0.19922-0.29297 0.33984-0.46875 0.42188-0.16797 0.082031-0.35938 0.125-0.57812 0.125-0.39844 0-0.71875-0.15625-0.96875-0.46875s-0.375-0.71094-0.375-1.2031c0-0.48828 0.125-0.89062 0.375-1.2031s0.57031-0.46875 0.96875-0.46875c0.21875 0 0.41016 0.046875 0.57812 0.14062 0.17578 0.085938 0.33203 0.21875 0.46875 0.40625zm-0.67188 2.0625c0.21875 0 0.38281-0.078125 0.5-0.23438 0.11328-0.16406 0.17188-0.39844 0.17188-0.70312 0-0.30078-0.058594-0.53125-0.17188-0.6875-0.11719-0.16406-0.28125-0.25-0.5-0.25s-0.38672 0.085938-0.5 0.25c-0.11719 0.15625-0.17188 0.38672-0.17188 0.6875 0 0.30469 0.054688 0.53906 0.17188 0.70312 0.11328 0.15625 0.28125 0.23438 0.5 0.23438z"/>
  </symbol>
  <symbol id="j" overflow="visible">
   <path d="m2.1875-0.65625c0.21875 0 0.38281-0.078125 0.5-0.23438 0.11328-0.16406 0.17188-0.39844 0.17188-0.70312 0-0.30078-0.058594-0.53125-0.17188-0.6875-0.11719-0.16406-0.28125-0.25-0.5-0.25s-0.38672 0.085938-0.5 0.25c-0.11719 0.15625-0.17188 0.38672-0.17188 0.6875 0 0.30469 0.054687 0.53906 0.17188 0.70312 0.11328 0.15625 0.28125 0.23438 0.5 0.23438zm-0.67188-2.0625c0.13281-0.1875 0.28516-0.32031 0.45312-0.40625 0.17578-0.09375 0.375-0.14062 0.59375-0.14062 0.39453 0 0.71875 0.15625 0.96875 0.46875s0.375 0.71484 0.375 1.2031c0 0.49219-0.125 0.89062-0.375 1.2031s-0.57422 0.46875-0.96875 0.46875c-0.21875 0-0.41797-0.042969-0.59375-0.125-0.16797-0.09375-0.32031-0.23438-0.45312-0.42188v0.46875h-1.0312v-4.4219h1.0312z"/>
  </symbol>
  <symbol id="i" overflow="visible">
   <path d="m0.078125-3.1875h1.0156l0.85938 2.1562 0.71875-2.1562h1.0156l-1.3281 3.4844c-0.13672 0.35156-0.29688 0.60156-0.48438 0.75-0.17969 0.14453-0.41406 0.21875-0.70312 0.21875h-0.59375v-0.67188h0.32812c0.16406 0 0.28516-0.03125 0.35938-0.09375 0.082031-0.054688 0.14844-0.15234 0.20312-0.29688l0.015625-0.078125z"/>
  </symbol>
  <symbol id="h" overflow="visible">
   <path d="m2.0938-2.3594c0.22656 0 0.39062-0.039063 0.48438-0.125 0.10156-0.09375 0.15625-0.23828 0.15625-0.4375 0-0.1875-0.054687-0.32031-0.15625-0.40625-0.09375-0.082031-0.25781-0.125-0.48438-0.125h-0.46875v1.0938zm-0.46875 0.75v1.6094h-1.0938v-4.25h1.6719c0.5625 0 0.97266 0.09375 1.2344 0.28125 0.25781 0.1875 0.39062 0.48438 0.39062 0.89062 0 0.28125-0.070313 0.51562-0.20312 0.70312-0.13672 0.17969-0.33984 0.30859-0.60938 0.39062 0.14453 0.03125 0.27344 0.10938 0.39062 0.23438 0.125 0.11719 0.25 0.29688 0.375 0.54688l0.59375 1.2031h-1.1719l-0.51562-1.0625c-0.10547-0.20703-0.21484-0.34766-0.32812-0.42188-0.10547-0.082031-0.24609-0.125-0.42188-0.125z"/>
  </symbol>
  <symbol id="g" overflow="visible">
   <path d="m0.48438-3.1875h1.0312v3.1875h-1.0312zm0-1.2344h1.0312v0.82812h-1.0312z"/>
  </symbol>
  <symbol id="f" overflow="visible">
   <path d="m2.5938-4.4219v0.65625h-0.57812c-0.13672 0-0.23438 0.027344-0.29688 0.078125-0.054688 0.054688-0.078125 0.14844-0.078125 0.28125v0.21875h0.85938v0.73438h-0.85938v2.4531h-1.0156v-2.4531h-0.51562v-0.73438h0.51562v-0.21875c0-0.35156 0.09375-0.60938 0.28125-0.76562 0.19531-0.16406 0.5-0.25 0.90625-0.25z"/>
  </symbol>
  <symbol id="d" overflow="visible">
   <path d="m2-2.5312c-0.21875 0-0.39062 0.085938-0.51562 0.25-0.11719 0.15625-0.17188 0.38672-0.17188 0.6875 0 0.3125 0.054688 0.55469 0.17188 0.71875 0.125 0.15625 0.29688 0.23438 0.51562 0.23438 0.22656 0 0.39844-0.078125 0.51562-0.23438 0.11328-0.16406 0.17188-0.40625 0.17188-0.71875 0-0.30078-0.058594-0.53125-0.17188-0.6875-0.11719-0.16406-0.28906-0.25-0.51562-0.25zm0-0.73438c0.55078 0 0.97656 0.15234 1.2812 0.45312 0.3125 0.29297 0.46875 0.69922 0.46875 1.2188 0 0.52344-0.15625 0.93359-0.46875 1.2344-0.30469 0.29297-0.73047 0.4375-1.2812 0.4375-0.54297 0-0.96875-0.14453-1.2812-0.4375-0.3125-0.30078-0.46875-0.71094-0.46875-1.2344 0-0.51953 0.15625-0.92578 0.46875-1.2188 0.3125-0.30078 0.73828-0.45312 1.2812-0.45312z"/>
  </symbol>
  <symbol id="s" overflow="visible">
   <path d="m3.4375-2.6562c0.13281-0.19531 0.28906-0.34766 0.46875-0.45312 0.17578-0.10156 0.36719-0.15625 0.57812-0.15625 0.36328 0 0.64062 0.11719 0.82812 0.34375 0.19531 0.21875 0.29688 0.54688 0.29688 0.98438v1.9375h-1.0156v-1.6562-0.078125-0.125c0-0.21875-0.039062-0.37891-0.10938-0.48438-0.0625-0.10156-0.16797-0.15625-0.3125-0.15625-0.19922 0-0.35156 0.085938-0.45312 0.25-0.10547 0.15625-0.15625 0.38672-0.15625 0.6875v1.5625h-1.0312v-1.6562c0-0.35156-0.03125-0.58203-0.09375-0.6875-0.054688-0.10156-0.15625-0.15625-0.3125-0.15625-0.19922 0-0.35156 0.085938-0.45312 0.25-0.10547 0.15625-0.15625 0.38672-0.15625 0.6875v1.5625h-1.0312v-3.1875h1.0312v0.46875c0.125-0.17578 0.26562-0.3125 0.42188-0.40625 0.16406-0.09375 0.34375-0.14062 0.53125-0.14062 0.22656 0 0.42578 0.054687 0.59375 0.15625 0.16406 0.10547 0.28906 0.25781 0.375 0.45312z"/>
  </symbol>
  <symbol id="r" overflow="visible">
   <path d="m3.6875-1.9375v1.9375h-1.0156v-1.4844c0-0.26953-0.011719-0.45703-0.03125-0.5625-0.011719-0.11328-0.027344-0.19141-0.046875-0.23438-0.042969-0.070312-0.10156-0.125-0.17188-0.15625-0.0625-0.039062-0.14062-0.0625-0.23438-0.0625-0.21094 0-0.375 0.085938-0.5 0.25-0.11719 0.16797-0.17188 0.39844-0.17188 0.6875v1.5625h-1.0312v-4.4219h1.0312v1.7031c0.14453-0.1875 0.30078-0.32031 0.46875-0.40625 0.17578-0.09375 0.36719-0.14062 0.57812-0.14062 0.375 0 0.65625 0.11719 0.84375 0.34375 0.1875 0.21875 0.28125 0.54688 0.28125 0.98438z"/>
  </symbol>
  <symbol id="q" overflow="visible">
   <path d="m0.53125-4.25h1.2344l1.5312 2.9219v-2.9219h1.0469v4.25h-1.2188l-1.5469-2.9219v2.9219h-1.0469z"/>
  </symbol>
  <symbol id="p" overflow="visible">
   <path d="m0.45312-1.2344v-1.9531h1.0312v0.3125c0 0.17969-0.007813 0.39844-0.015625 0.65625v0.51562c0 0.26172 0.003906 0.44922 0.015625 0.5625 0.019531 0.11719 0.046875 0.19922 0.078125 0.25 0.039062 0.0625 0.09375 0.11719 0.15625 0.15625 0.070312 0.03125 0.14844 0.046875 0.23438 0.046875 0.21875 0 0.38281-0.078125 0.5-0.23438 0.125-0.16406 0.1875-0.39453 0.1875-0.6875v-1.5781h1.0156v3.1875h-1.0156v-0.46875c-0.15625 0.1875-0.32422 0.32812-0.5 0.42188-0.16797 0.082031-0.35547 0.125-0.5625 0.125-0.36719 0-0.64844-0.10938-0.84375-0.32812-0.1875-0.22656-0.28125-0.55469-0.28125-0.98438z"/>
  </symbol>
  <symbol id="o" overflow="visible">
   <path d="m3.6875-1.9375v1.9375h-1.0156v-1.4844c0-0.26953-0.011719-0.45703-0.03125-0.5625-0.011719-0.11328-0.027344-0.19141-0.046875-0.23438-0.042969-0.070312-0.10156-0.125-0.17188-0.15625-0.0625-0.039062-0.14062-0.0625-0.23438-0.0625-0.21094 0-0.375 0.085938-0.5 0.25-0.11719 0.16797-0.17188 0.39844-0.17188 0.6875v1.5625h-1.0312v-3.1875h1.0312v0.46875c0.14453-0.1875 0.30078-0.32031 0.46875-0.40625 0.17578-0.09375 0.36719-0.14062 0.57812-0.14062 0.375 0 0.65625 0.11719 0.84375 0.34375 0.1875 0.21875 0.28125 0.54688 0.28125 0.98438z"/>
  </symbol>
  <symbol id="n" overflow="visible">
   <path d="m0.53125-4.25h1.8281c0.53906 0 0.95312 0.12109 1.2344 0.35938 0.28906 0.24219 0.4375 0.58594 0.4375 1.0312 0 0.44922-0.14844 0.79297-0.4375 1.0312-0.28125 0.24219-0.69531 0.35938-1.2344 0.35938h-0.73438v1.4688h-1.0938zm1.0938 0.79688v1.1875h0.60938c0.21875 0 0.38281-0.050781 0.5-0.15625 0.11328-0.10156 0.17188-0.25 0.17188-0.4375s-0.058594-0.33203-0.17188-0.4375c-0.11719-0.10156-0.28125-0.15625-0.5-0.15625z"/>
  </symbol>
  <symbol id="m" overflow="visible">
   <path d="m0.48438-3.1875h1.0312v3.125c0 0.42578-0.10547 0.75391-0.3125 0.98438-0.21094 0.22656-0.50781 0.34375-0.89062 0.34375h-0.5v-0.67188h0.17188c0.1875 0 0.31641-0.046875 0.39062-0.14062 0.070312-0.085937 0.10938-0.25781 0.10938-0.51562zm0-1.2344h1.0312v0.82812h-1.0312z"/>
  </symbol>
  <symbol id="l" overflow="visible">
   <path d="m3.0625-3.0938v0.84375c-0.13672-0.10156-0.27734-0.17578-0.42188-0.21875-0.13672-0.039062-0.27734-0.0625-0.42188-0.0625-0.29297 0-0.51562 0.085938-0.67188 0.25-0.15625 0.16797-0.23438 0.39844-0.23438 0.6875 0 0.30469 0.078125 0.53906 0.23438 0.70312 0.15625 0.16797 0.37891 0.25 0.67188 0.25 0.15625 0 0.30078-0.019531 0.4375-0.0625 0.14453-0.050781 0.28125-0.125 0.40625-0.21875v0.82812c-0.15625 0.0625-0.32031 0.10156-0.48438 0.125-0.16797 0.03125-0.32812 0.046875-0.48438 0.046875-0.58594 0-1.0391-0.14453-1.3594-0.4375-0.32422-0.28906-0.48438-0.70312-0.48438-1.2344 0-0.51953 0.16016-0.92578 0.48438-1.2188 0.32031-0.30078 0.77344-0.45312 1.3594-0.45312 0.16406 0 0.32812 0.015625 0.48438 0.046875 0.16406 0.03125 0.32812 0.074219 0.48438 0.125z"/>
  </symbol>
 </defs>
 <g>
  <path d="m556.41 420.22-73.547 0.058594c-3.0781 0-5.5781-2.4961-5.5781-5.5781 0-3.0781 2.4961-5.5781 5.5781-5.5781l73.547-0.058594v-24.09l-103.79 0.058594c-3.0781 0-5.5781-2.4961-5.5781-5.5781 0-3.0781 2.4961-5.5781 5.5781-5.5781l103.79-0.058594v-66.605c-3.6172 1.4336-7.6289 2.2734-12.016 2.4375-0.21094 0.023437-0.43359 0.035156-0.65234 0.035156l-154.29 0.003906c-1.2383 8.7617-5.3086 16.602-11.281 22.562-7.2109 7.2109-17.16 11.668-28.164 11.668-11 0-20.953-4.457-28.164-11.668-5.9609-5.9609-10.047-13.801-11.281-22.562h-154.29v-0.011718c-0.21094 0-0.42188-0.011719-0.62891-0.035157-4.0938-0.46484-7.9219-1.5742-11.422-3.2188v126.33c0 5.543 2.2617 10.723 6.1953 14.641 3.8633 3.8633 9.2969 6.5352 15.809 7.2461h368.33c0.10547 0 0.22266 0 0.32812 0.011719 6.8828-0.23438 12.273-2.4609 15.914-6.1016 3.8047-3.8047 5.7969-9.2734 5.6836-15.715v-0.09375h-0.023438l-0.003906-12.52zm-287.08-270.29v-19.438c0-10 4.082-19.086 10.676-25.68 6.5781-6.5781 15.668-10.676 25.68-10.676h88.652c10 0 19.086 4.082 25.68 10.676 6.5781 6.5781 10.676 15.668 10.676 25.68v19.438h113.06c0.21094 0 0.42188 0.011718 0.61719 0.035156 10.465 0.30469 18.863 3.6289 24.699 9.0781 5.1211 4.7852 8.2266 11.082 8.9844 18.34 0.12891 0.47656 0.19922 0.98047 0.19922 1.4922v90.406h-0.023438c0.16406 11.445-3 21.398-8.9727 28.594-0.53516 0.64062-1.0859 1.2617-1.6562 1.8555v133.04h-0.023437c0.16406 9.5195-2.9766 17.781-8.9141 23.719-5.6016 5.6016-13.59 9.0195-23.52 9.332-0.21094 0.023438-0.42188 0.035156-0.62891 0.035156h-368.43v-0.023437c-0.17578 0-0.35156-0.011719-0.52344-0.023437-9.4375-0.89844-17.406-4.7969-23.102-10.488-6.0078-6.0078-9.4727-13.977-9.4727-22.562v-134.43c-0.58203-0.61719-1.1562-1.2617-1.7031-1.9258-6.0547-7.293-9.543-16.883-9.543-27.125v-87c0-0.10547 0-0.21094 0.011718-0.30469 0-0.10547-0.011718-0.21094-0.011718-0.30469 0-8.3281 3.6992-16.031 10.09-21.816 5.9492-5.3789 14.211-9.0547 23.941-9.8945 0.16406-0.011719 0.32812-0.023437 0.47656-0.023437l113.07 0.007812zm150.15 0v-19.438c0-6.9062-2.8359-13.195-7.3867-17.758-4.5625-4.5625-10.852-7.3867-17.758-7.3867h-88.656c-6.9062 0-13.195 2.8359-17.758 7.3867-4.5625 4.5625-7.3867 10.852-7.3867 17.758v19.438zm138.48 143.56c0.23438-0.24609 0.5-0.47656 0.78125-0.67578 0.69922-0.64062 1.3516-1.3281 1.9609-2.0664 4.2695-5.1445 6.5234-12.59 6.3828-21.375v-0.09375h-0.023437v-89.367c-0.24609-5.1211-2.1914-9.5078-5.6016-12.691-3.9102-3.6406-9.7891-5.8789-17.371-6.1016-0.11719 0.011718-0.23438 0.011718-0.33984 0.011718h-387.25c-7.1289 0.66406-13.043 3.2422-17.172 6.9766-4.0469 3.6523-6.3828 8.4453-6.3828 13.559 0 0.10547 0 0.21094-0.011718 0.30469 0 0.10547 0.011718 0.21094 0.011718 0.30469v14.98l128.17 0.058594c3.0781 0 5.5781 2.4961 5.5781 5.5781 0 3.0781-2.4961 5.5781-5.5781 5.5781l-128.17-0.058594v12.867l94.77 0.058594c3.0781 0 5.5781 2.4961 5.5781 5.5781 0 3.0781-2.4961 5.5781-5.5781 5.5781l-94.77-0.058594v36.832c0 7.6406 2.5312 14.711 6.918 19.996 4.0938 4.9336 9.8477 8.3398 16.672 9.2148l154.04-0.007812c1.2383-8.7617 5.3086-16.602 11.281-22.562 7.2109-7.2109 17.16-11.668 28.164-11.668 11 0 20.953 4.457 28.164 11.668 5.9609 5.9609 10.047 13.801 11.281 22.562h154.29c0.09375 0 0.19922 0 0.29297 0.011719 5.6094-0.19922 10.285-1.9961 13.914-4.9922zm-187.7-9.6367c5.1797 5.1797 8.3867 12.344 8.3867 20.242s-3.207 15.062-8.3867 20.242c-5.1797 5.1797-12.344 8.3867-20.242 8.3867-7.9102 0-15.062-3.207-20.242-8.3867-5.1797-5.1797-8.3867-12.344-8.3867-20.242s3.207-15.062 8.3867-20.242c5.1797-5.1797 12.344-8.3867 20.242-8.3867 7.8984-0.003906 15.062 3.207 20.242 8.3867zm-191.78 143.11c-3.0898 0-5.6016-2.5078-5.6016-5.6016 0-0.17578 0.011719-0.33984 0.023438-0.5l0.046874-55.648c0-3.0781 2.4961-5.5781 5.5781-5.5781v-0.023438h66.125c3.0898 0 5.6016 2.5078 5.6016 5.6016 0 0.16406-0.011719 0.33984-0.023438 0.5l-0.046874 55.172c0.011718 0.16406 0.023437 0.32812 0.023437 0.48828 0 3.0898-2.5078 5.6016-5.6016 5.6016h-66.125zm5.5898-11.199 0.035156-44.953h54.973l-0.035157 44.953z" fill-rule="evenodd"/>
  <!-- <use x="70" y="577.5" xlink:href="#t"/>
  <use x="74.28125" y="577.5" xlink:href="#c"/>
  <use x="77.15625" y="577.5" xlink:href="#a"/>
  <use x="81.113281" y="577.5" xlink:href="#e"/>
  <use x="85.050781" y="577.5" xlink:href="#b"/>
  <use x="87.839844" y="577.5" xlink:href="#a"/>
  <use x="91.796875" y="577.5" xlink:href="#k"/>
  <use x="98" y="577.5" xlink:href="#j"/>
  <use x="102.175781" y="577.5" xlink:href="#i"/>
  <use x="108.011719" y="577.5" xlink:href="#h"/>
  <use x="112.503906" y="577.5" xlink:href="#g"/>
  <use x="114.5" y="577.5" xlink:href="#f"/>
  <use x="117.039062" y="577.5" xlink:href="#e"/>
  <use x="120.976562" y="577.5" xlink:href="#g"/>
  <use x="70" y="583.332031" xlink:href="#f"/>
  <use x="72.539062" y="583.332031" xlink:href="#c"/>
  <use x="75.414062" y="583.332031" xlink:href="#d"/>
  <use x="79.421875" y="583.332031" xlink:href="#s"/>
  <use x="87.53125" y="583.332031" xlink:href="#b"/>
  <use x="90.320312" y="583.332031" xlink:href="#r"/>
  <use x="94.472656" y="583.332031" xlink:href="#a"/>
  <use x="100.460938" y="583.332031" xlink:href="#q"/>
  <use x="105.34375" y="583.332031" xlink:href="#d"/>
  <use x="109.347656" y="583.332031" xlink:href="#p"/>
  <use x="113.503906" y="583.332031" xlink:href="#o"/>
  <use x="119.6875" y="583.332031" xlink:href="#n"/>
  <use x="123.960938" y="583.332031" xlink:href="#c"/>
  <use x="126.839844" y="583.332031" xlink:href="#d"/>
  <use x="130.84375" y="583.332031" xlink:href="#m"/>
  <use x="132.84375" y="583.332031" xlink:href="#a"/>
  <use x="136.800781" y="583.332031" xlink:href="#l"/>
  <use x="140.257812" y="583.332031" xlink:href="#b"/> -->
 </g>
</svg>
