<?xml version="1.0" encoding="UTF-8"?>
<svg width="1200px" height="1200px" version="1.1" viewBox="0 0 1200 1200" xmlns="http://www.w3.org/2000/svg">
 <path d="m670.97 70.969c-162.7 0-308.35 73.754-405.45 189.54 16.391 5.4023 32.293 13.305 47.402 23.562 87.434-99.047 215.32-161.5 358.04-161.5 263.97 0 477.42 213.45 477.42 477.42 0 263.97-213.45 477.42-477.42 477.42-70.09 0-136.5-15.227-196.4-42.285-3.0469 17.367-8.6211 33.82-16.336 49.02 65.16 28.734 137.03 44.891 212.72 44.891 291.87 0 529.03-237.16 529.03-529.03s-237.16-529.03-529.03-529.03m-458.07 232.26c-51.871 0-96.633 32.891-126.68 79.934-30.051 47.047-47.508 109.54-47.508 178.13 0 37.434 5.3672 72.93 14.969 105.21 15.586-6.8398 32.359-11.445 49.949-13.535-8.3359-27.562-13.305-58.621-13.305-91.691 0-59.676 15.742-113.32 39.395-150.32s53.137-56.129 83.188-56.129c30.066 0 59.523 19.109 83.16 56.129 23.652 37.008 39.418 90.711 39.418 150.32 0 33.059-4.9688 64.129-13.305 91.691 17.586 2.0781 34.336 6.6953 49.922 13.535 9.6133-32.285 14.992-67.781 14.992-105.21 0-68.594-17.473-131.07-47.535-178.13-30.066-47.047-74.773-79.934-126.66-79.934m299.1 154.84-20.656 47.305 79.508 34.75-80.492 39.316 22.656 46.375 130.59-63.805 0.003906-0.003906c5.9297-2.9023 10.523-7.9609 12.836-14.145 2.3086-6.1797 2.168-13.012-0.40234-19.09s-7.3711-10.941-13.418-13.59l-130.62-57.109m346.07 12.902h0.003906c-18.824 0-36.875 7.4766-50.184 20.785-13.309 13.309-20.785 31.359-20.785 50.184 0 18.82 7.4766 36.871 20.785 50.18 13.309 13.309 31.359 20.785 50.184 20.785 18.82 0 36.871-7.4766 50.18-20.785s20.785-31.359 20.785-50.18c0-18.824-7.4766-36.875-20.785-50.184-13.309-13.309-31.359-20.785-50.18-20.785m-707.51 232.26c-82.953 0-150.53 67.602-150.53 150.55v124.72c0 82.953 67.574 150.53 150.53 150.53h124.72c82.953 0 150.55-67.574 150.55-150.53v-124.72c0-82.953-67.602-150.55-150.55-150.55h-124.72m397.23 38.711-44.527 26.066s73.047 128.75 206.45 128.75 206.45-128.75 206.45-128.75l-44.527-26.066s-62.852 103.23-161.92 103.23c-99.07 0-161.92-103.23-161.92-103.23m-397.23 12.902h124.72c38.027 0 70.566 20.695 87.176 51.613h-194.71v38.711h206.05c0.23047 2.8398 0.42578 5.7031 0.42578 8.6211v124.72c0 2.9023-0.19531 5.7539-0.42578 8.5938h-206.05v38.711h194.71c-16.594 30.902-49.148 51.613-87.176 51.613h-124.72c-55.25 0-98.918-43.664-98.918-98.918v-124.72c0-55.25 43.664-98.941 98.918-98.941m17.188 141.93v38.711h206.45v-38.711h-206.45"/>
</svg>
